inDegrees=no
num_controls=7
num_derivatives=13
num_iterations=70
num_multipliers=7
num_parameters=0
num_slacks=7
num_states=26
objective=0.464730
objective_accelerations=0.058949
objective_balance=0.002208
objective_effort=0.066377
objective_height=0.326544
objective_ligament=0.010652
solver_duration=967.097301
status=Solve_Succeeded
success=true
DataType=double
version=3
OpenSimVersion=4.5
endheader
time	/jointset/ground_pelvis/pelvis_tilt/value	/jointset/ground_pelvis/pelvis_tx/value	/jointset/ground_pelvis/pelvis_ty/value	/jointset/hip_l/hip_flexion_l/value	/jointset/hip_l/hip_adduction_l/value	/jointset/hip_l/hip_rotation_l/value	/jointset/back/lumbar_extension/value	/jointset/patellofemoral_l/patellar_flexion_l/value	/jointset/knee_l/knee_flexion_l/value	/jointset/knee_l/knee_adduction_l/value	/jointset/knee_l/knee_rotation_l/value	/jointset/ankle_l/ankle_angle_l/value	/jointset/subtalar_l/subtalar_angle_l/value	/jointset/ground_pelvis/pelvis_tilt/speed	/jointset/ground_pelvis/pelvis_tx/speed	/jointset/ground_pelvis/pelvis_ty/speed	/jointset/hip_l/hip_flexion_l/speed	/jointset/hip_l/hip_adduction_l/speed	/jointset/hip_l/hip_rotation_l/speed	/jointset/back/lumbar_extension/speed	/jointset/patellofemoral_l/patellar_flexion_l/speed	/jointset/knee_l/knee_flexion_l/speed	/jointset/knee_l/knee_adduction_l/speed	/jointset/knee_l/knee_rotation_l/speed	/jointset/ankle_l/ankle_angle_l/speed	/jointset/subtalar_l/subtalar_angle_l/speed	/forceset/tau_hip_flexion_l	/forceset/tau_hip_adduction_l	/forceset/tau_hip_rotation_l	/forceset/tau_knee_flexion_l	/forceset/tau_ankle_angle_l	/forceset/tau_subtalar_angle_l	/forceset/tau_lumbar_extension	lambda_cid13_p0	lambda_cid13_p1	lambda_cid13_p2	lambda_cid13_p3	lambda_cid13_p4	lambda_cid13_p5	lambda_cid14_p0	/jointset/ground_pelvis/pelvis_tilt/accel	/jointset/ground_pelvis/pelvis_tx/accel	/jointset/ground_pelvis/pelvis_ty/accel	/jointset/hip_l/hip_flexion_l/accel	/jointset/hip_l/hip_adduction_l/accel	/jointset/hip_l/hip_rotation_l/accel	/jointset/back/lumbar_extension/accel	/jointset/patellofemoral_l/patellar_flexion_l/accel	/jointset/knee_l/knee_flexion_l/accel	/jointset/knee_l/knee_adduction_l/accel	/jointset/knee_l/knee_rotation_l/accel	/jointset/ankle_l/ankle_angle_l/accel	/jointset/subtalar_l/subtalar_angle_l/accel	gamma_cid13_p0	gamma_cid13_p1	gamma_cid13_p2	gamma_cid13_p3	gamma_cid13_p4	gamma_cid13_p5	gamma_cid14_p0
0.5	-0.1430724425241001	-0.08699596937874221	0.6747868881662328	1.394034505943206	-0.3217428523783133	0.04719673051204318	-0.8569107743510274	1.367476865379736	1.367476865379727	-0.04548892520402848	-0.1743048489655467	0.211572284047994	0.04488390816854153	-0.1094949272864753	-0.1256081484544835	-0.8893191596589489	2.672725323866493	0.07931311420143011	0.853188802553376	-0.7127257575505284	2.78981940356589	2.789819403565969	0.2655727218725681	0.000199013070679068	0.4141200398583069	0.2520657587846233	-0.3504478240211137	0.00339359042018584	-0.001921723851105259	-0.3439489139512794	0.1457047863420002	0.01729237073850425	0.3995826060265708	0.3313585341784714	-5.591190064112404	-1.821019783594231	-21.77978796432972	-727.5378763329837	-55.62202774254835	-0.04253777196705339	1.419910018625888	1.279086034191409	-0.1027702231864285	-2.70861099763995	0.8061982185740484	-0.5907948096078502	2.905069536298834	-3.07712875370085	-3.077128753700797	-0.1577120878175751	0.006649026470274469	-1.979055401163731	0.3870397655972018	-1.232868462736736e-07	1.73641157857206e-07	2.287446750956684e-06	3.173109745036677e-09	-2.313796323034248e-07	1.723054241466561e-06	-3.512027466461184e-07
0.51	-0.144096299915514	-0.08818846187907781	0.6658906083671469	1.420623797401828	-0.3209099707392792	0.05570023770545831	-0.8638927634895174	1.395217876423212	1.395217876423206	-0.04284331655695271	-0.1743027710537635	0.2156132126089293	0.0474226260162539	-0.09524991174452624	-0.1129281678316559	-0.8897179032760287	2.644826971959245	0.08725049835805082	0.8474604721768073	-0.6836995264599848	2.758028983067919	2.758028983068092	0.2635363922281308	0.0002154700582444571	0.3939649668125456	0.2556140882696268	-0.3575979236615294	0.001726113381270148	-0.001210933285874976	-0.3519576008109443	0.1463592101576637	0.0158752223492492	0.4069739387755395	-0.08459843091304205	-4.723607756879899	-2.164122561219056	-21.18440502761349	-736.0700850138586	-55.73201449637664	-0.04228856216129985	1.430761586829624	1.256775721586873	0.02436764752656775	-2.876381575613846	0.7853020110836413	-0.571910933306745	2.89728144852136	-3.283007449262199	-3.283007449248147	-0.2285811053926756	-0.0005565271461912594	-2.048793153369425	0.328889699383985	-6.448104516711876e-08	1.657178147359132e-07	1.910106658046143e-06	-6.214557668617012e-08	-1.815477631133124e-07	1.525762635144151e-06	-2.948916269028879e-07
0.52	-0.1449769142985366	-0.0892552902441331	0.6569968999475893	1.446924918483711	-0.319998156559304	0.06414484983879071	-0.8705853140064842	1.422630381511424	1.422630381511423	-0.04021846874685216	-0.1743004686845204	0.2194495784599896	0.04999485919070273	-0.08084632560858321	-0.1004753213984254	-0.8888048837532969	2.615091248518129	0.09509962238977042	0.8414097905352246	-0.6548380332458827	2.724118212513268	2.724118212513535	0.2614205544782597	0.0002439045639751666	0.3732074978833015	0.2587688241319127	-0.3647480233019418	5.863634236819234e-05	-0.0005001427207076283	-0.3599662876706115	0.1470136339733291	0.01445807396001295	0.4143652715245104	-0.5209273005832027	-3.849219303878011	-2.512007722081553	-20.57834152491516	-744.8588632926231	-55.92979083616598	-0.04193611536993888	1.451624137424592	1.23365919627202	0.1595824047759355	-3.07608530441378	0.7885461935938012	-0.6552650626106875	2.872121961010461	-3.501198765036818	-3.501198765036873	-0.1736137089043256	0.009044530103334067	-2.099534577860181	0.3083210410536886	-1.317754113307417e-08	1.276325361530379e-07	1.516590019988122e-06	-1.278802049760729e-07	-1.396814099146237e-07	1.274562064026935e-06	-2.385271680658688e-07
0.53	-0.1457129167220305	-0.09019880279636193	0.6481188444660512	1.472919715100402	-0.3190081788030221	0.07252681856429992	-0.8769902096355147	1.44969346336796	1.449693463367965	-0.03761449818154708	-0.1742977966085865	0.2230757147986367	0.0525968984772294	-0.06634753710924489	-0.08827245898771977	-0.886589795892364	2.583573397738697	0.1028750025307286	0.8349374118778813	-0.6261855640396818	2.688167021357231	2.688167021357196	0.2593438121560545	0.0002862754085160536	0.3519501207477425	0.2615716675214608	-0.3712115902554493	-0.001664770691273245	0.0002396907763391961	-0.3676464714847058	0.1476211977331226	0.01296634104716931	0.4210771918892863	-0.9411194650249827	-2.939052805533196	-2.872693929305998	-19.91441928555044	-752.9987031640818	-56.08656081321978	-0.04159153308245032	1.449975302309035	1.206776791074934	0.2849109379084493	-3.233859988776425	0.7687045211791408	-0.650348912718979	2.85513867846833	-3.691708122139893	-3.69170812218508	-0.2292367794823006	0.001490017283014166	-2.149247063421153	0.2559854315589517	3.410669751021517e-08	8.410387710422159e-08	1.125991742546789e-06	-1.911944956351003e-07	-1.014625608767229e-07	9.831051533986227e-07	-1.806134326606418e-07
0.54	-0.1463037374413054	-0.09102165131896235	0.6392694276553538	1.498590488204487	-0.3179411131259644	0.08084263857415472	-0.8831099147168744	1.476387107546685	1.476387107546689	-0.03503220149657851	-0.174294769493078	0.2264871958095246	0.05522491008638226	-0.05180998476509532	-0.07634251547274436	-0.8830771495851757	2.550286545996523	0.1105172065449793	0.8281800474036235	-0.5977999237117547	2.650230676951084	2.650230676950748	0.2570857784097006	0.0003149124791986504	0.3302764323314882	0.2639632886571519	-0.3776751572089548	-0.003388177724911825	0.0009795242734109244	-0.3753266552987999	0.148228761492915	0.01147460813432831	0.4277891122540638	-1.384628924792093	-2.022064695858506	-3.237594559210386	-19.22324285047836	-761.4240839461535	-56.330665041489	-0.04126463884460255	1.459376906386768	1.179075417126019	0.4190940940270027	-3.429885496962329	0.761910968252287	-0.7122622259935943	2.818756185355664	-3.898229415058682	-3.898229415058552	-0.2098719937340775	0.006297775331670582	-2.182796833999151	0.2260765902823217	7.694408933820078e-08	3.455275456117255e-08	7.386222896175355e-07	-2.518309659365633e-07	-6.727924835714079e-08	6.471093139495223e-07	-1.209856040310147e-07
0.55	-0.1467492255616486	-0.09172662789102387	0.6304615728709752	1.52391973167046	-0.3167981452786817	0.08908869004499885	-0.8889472298204042	1.502691717588329	1.502691717588339	-0.03247244050806213	-0.1742914219107438	0.2296802553606553	0.05787508155510813	-0.03730378924750933	-0.06470420504571904	-0.8782818293564545	2.515277778227111	0.1180510579121912	0.8209681627688683	-0.5697231560712521	2.610381810175841	2.610381810175514	0.2548450079408846	0.0003515135285423454	0.3083015565091386	0.2660080411328474	-0.3833382624176163	-0.005164756151658147	0.001724283655318463	-0.3826553480377194	0.1489082311697089	0.009933121784333721	0.4337351125160885	-1.765372377767749	-1.090893786089395	-3.608829301951243	-18.53978981564276	-769.1030553832476	-56.56198180997623	-0.04094939920381876	1.443801061886161	1.148440958638266	0.5415379507133018	-3.579040806122256	0.7452430555951652	-0.7350202606417278	2.793128191808691	-4.074625796849136	-4.074625796847807	-0.2344238463336831	0.001994633031163844	-2.209889908590961	0.1841625916151453	1.139463173123507e-07	-1.782596494546119e-08	3.671464998838863e-07	-3.068168892757218e-07	-3.779627092481323e-08	2.814118451308006e-07	-6.147506069314643e-08
0.5600000000000001	-0.1470501396893268	-0.09231677493818531	0.6217080286815675	1.548890353780902	-0.3155806147507993	0.09726074893381599	-0.894505579019847	1.528588556864603	1.528588556864616	-0.02993573607881098	-0.1742877776452611	0.2326525547631147	0.06054379815167135	-0.02289518623226915	-0.05337661049273081	-0.8722150305909954	2.478562274890033	0.1254297426649827	0.8133815309971033	-0.5420067428943145	2.568676523876918	2.5686765238766	0.2524744665569353	0.0003742491097034639	0.2861244025972661	0.267672314224622	-0.3890013676262751	-0.006941334578397992	0.002469043037195284	-0.3899840407766412	0.1495877008465025	0.008391635434347613	0.4396811127781155	-2.171648365063984	-0.1531607650146873	-3.983498556496905	-17.8141760459349	-777.0878768840026	-56.87917179390756	-0.04064858760050363	1.439858405917532	1.116932242318659	0.6733898013746525	-3.771232610495856	0.7308776453681617	-0.7872116533955521	2.746685292642626	-4.269513319794481	-4.269513319794494	-0.2358261767607403	0.003524681695152309	-2.223252451903621	0.1499807134981752	1.43946348661898e-07	-7.359780080839645e-08	1.474310598496149e-08	-3.550221562601149e-07	-1.395369559719094e-08	-1.199275789314655e-07	-2.105259705388701e-09
0.5700000000000001	-0.1472076642339461	-0.09279525609456789	0.6130214399545654	1.573485407956131	-0.3142900073522381	0.1053545787718779	-0.8997886740178469	1.554059315951061	1.554059315951078	-0.02742281768548927	-0.1742838419513842	0.2354024722390378	0.0632274671443676	-0.008647372672244016	-0.04237669919612484	-0.8648975641882427	2.440172554588793	0.1326571565607637	0.8053360784967529	-0.5146832945792187	2.525189709494582	2.525189709494575	0.2500615001047087	0.0004087018256452271	0.263862000869483	0.2689979469087408	-0.3939053927600765	-0.008654004180507234	0.003194125618253829	-0.3967951904924363	0.1502425854967934	0.006768370638992725	0.4448853201116861	-2.543008242698883	0.8181695527161038	-4.36831556811341	-17.08712200513317	-784.2570204541501	-57.11756919128864	-0.04035912161984521	1.411583800614836	1.082882353676226	0.7916975595714395	-3.914247144640507	0.7134990175892344	-0.8204423205546264	2.714518919879644	-4.431109381089116	-4.431109381042349	-0.2511727858402677	0.002729427287506331	-2.22727666449055	0.1143589230523885	1.688963134360881e-07	-1.283097753876591e-07	-3.096278391577039e-07	-3.969439763797781e-07	6.61626630714717e-09	-5.229487110556523e-07	5.459974738145701e-08
0.58	-0.1472238424490508	-0.09316546578191515	0.6044141803915601	1.597688283847408	-0.3129281606635381	0.1133665080304995	-0.9048006656689088	1.57908663811697	1.579086638116989	-0.02493545713796062	-0.1742796969582006	0.2379298571714281	0.06592249333934176	0.005374079670564005	-0.03172231668566921	-0.8563491977916652	2.400126618099456	0.139677600692792	0.7970014151084076	-0.4877860735066704	2.479989139766811	2.479989139767115	0.247362897397014	0.0004161089713392565	0.241617893890705	0.2699437546802048	-0.3988094178938743	-0.01036667378261603	0.003919208199333609	-0.4036063402082322	0.150897470147082	0.00514510584363702	0.45008952744526	-2.941398475001998	1.795600078759819	-4.755667069880793	-16.30480807433601	-791.742176640447	-57.4393036156218	-0.04008702343716417	1.394586162474047	1.047826485088649	0.9195698001396606	-4.10247584811531	0.6894836926176353	-0.8450538309945532	2.661439844133079	-4.612264388881404	-4.612264388881578	-0.2929534278543819	-0.001884432354398852	-2.219593502102499	0.07401573096721771	1.872694473214409e-07	-1.816414655044638e-07	-5.974914091759362e-07	-4.306827029081647e-07	2.292422003232444e-08	-9.281599746093124e-07	1.078343252019982e-07
